<mxfile host="app.diagrams.net" modified="2023-05-10T15:32:16.337Z" agent="5.0 (Windows NT 10.0; Win64; x64) AppleWebKit/537.36 (KHTML, like Gecko) Chrome/112.0.0.0 Safari/537.36" etag="j6n90wJdFkPAqUV7Bs6N" version="21.0.2" type="github">
  <diagram name="第 1 页" id="eb18voc41g7uNXnEWzvE">
    <mxGraphModel dx="1434" dy="764" grid="1" gridSize="10" guides="1" tooltips="1" connect="1" arrows="1" fold="1" page="1" pageScale="1" pageWidth="3300" pageHeight="4681" math="0" shadow="0">
      <root>
        <mxCell id="0" />
        <mxCell id="1" parent="0" />
        <mxCell id="5-KOo01hlj58CdEPXeHK-24" style="edgeStyle=orthogonalEdgeStyle;rounded=0;orthogonalLoop=1;jettySize=auto;html=1;entryX=0.5;entryY=1;entryDx=0;entryDy=0;" edge="1" parent="1" source="5-KOo01hlj58CdEPXeHK-1" target="5-KOo01hlj58CdEPXeHK-20">
          <mxGeometry relative="1" as="geometry" />
        </mxCell>
        <mxCell id="5-KOo01hlj58CdEPXeHK-25" style="edgeStyle=orthogonalEdgeStyle;rounded=0;orthogonalLoop=1;jettySize=auto;html=1;entryX=1;entryY=0.25;entryDx=0;entryDy=0;" edge="1" parent="1" source="5-KOo01hlj58CdEPXeHK-1" target="5-KOo01hlj58CdEPXeHK-19">
          <mxGeometry relative="1" as="geometry">
            <Array as="points">
              <mxPoint x="290" y="230" />
              <mxPoint x="290" y="185" />
            </Array>
          </mxGeometry>
        </mxCell>
        <mxCell id="5-KOo01hlj58CdEPXeHK-26" style="edgeStyle=orthogonalEdgeStyle;rounded=0;orthogonalLoop=1;jettySize=auto;html=1;entryX=1;entryY=0.5;entryDx=0;entryDy=0;" edge="1" parent="1" source="5-KOo01hlj58CdEPXeHK-1" target="5-KOo01hlj58CdEPXeHK-17">
          <mxGeometry relative="1" as="geometry" />
        </mxCell>
        <mxCell id="5-KOo01hlj58CdEPXeHK-27" style="edgeStyle=orthogonalEdgeStyle;rounded=0;orthogonalLoop=1;jettySize=auto;html=1;exitX=0.25;exitY=1;exitDx=0;exitDy=0;entryX=1;entryY=0.5;entryDx=0;entryDy=0;" edge="1" parent="1" source="5-KOo01hlj58CdEPXeHK-1" target="5-KOo01hlj58CdEPXeHK-23">
          <mxGeometry relative="1" as="geometry">
            <Array as="points">
              <mxPoint x="345" y="270" />
              <mxPoint x="310" y="270" />
              <mxPoint x="310" y="370" />
              <mxPoint x="250" y="370" />
            </Array>
          </mxGeometry>
        </mxCell>
        <mxCell id="5-KOo01hlj58CdEPXeHK-28" style="edgeStyle=orthogonalEdgeStyle;rounded=0;orthogonalLoop=1;jettySize=auto;html=1;" edge="1" parent="1" source="5-KOo01hlj58CdEPXeHK-1" target="5-KOo01hlj58CdEPXeHK-16">
          <mxGeometry relative="1" as="geometry" />
        </mxCell>
        <mxCell id="5-KOo01hlj58CdEPXeHK-29" style="edgeStyle=orthogonalEdgeStyle;rounded=0;orthogonalLoop=1;jettySize=auto;html=1;exitX=0.75;exitY=1;exitDx=0;exitDy=0;entryX=0.5;entryY=0;entryDx=0;entryDy=0;" edge="1" parent="1" source="5-KOo01hlj58CdEPXeHK-1" target="5-KOo01hlj58CdEPXeHK-22">
          <mxGeometry relative="1" as="geometry" />
        </mxCell>
        <mxCell id="5-KOo01hlj58CdEPXeHK-43" style="edgeStyle=orthogonalEdgeStyle;rounded=0;orthogonalLoop=1;jettySize=auto;html=1;exitX=1;exitY=0.5;exitDx=0;exitDy=0;entryX=0;entryY=0.5;entryDx=0;entryDy=0;" edge="1" parent="1" source="5-KOo01hlj58CdEPXeHK-1" target="5-KOo01hlj58CdEPXeHK-3">
          <mxGeometry relative="1" as="geometry" />
        </mxCell>
        <mxCell id="5-KOo01hlj58CdEPXeHK-1" value="开户申请" style="rounded=1;whiteSpace=wrap;html=1;" vertex="1" parent="1">
          <mxGeometry x="320" y="210" width="100" height="70" as="geometry" />
        </mxCell>
        <mxCell id="5-KOo01hlj58CdEPXeHK-4" value="包含" style="text;html=1;align=center;verticalAlign=middle;resizable=0;points=[];autosize=1;strokeColor=none;fillColor=none;" vertex="1" parent="1">
          <mxGeometry x="450" y="180" width="50" height="30" as="geometry" />
        </mxCell>
        <mxCell id="5-KOo01hlj58CdEPXeHK-5" value="开户行" style="rounded=1;whiteSpace=wrap;html=1;" vertex="1" parent="1">
          <mxGeometry x="630" y="260" width="100" height="60" as="geometry" />
        </mxCell>
        <mxCell id="5-KOo01hlj58CdEPXeHK-55" style="edgeStyle=orthogonalEdgeStyle;rounded=0;orthogonalLoop=1;jettySize=auto;html=1;entryX=0.5;entryY=1;entryDx=0;entryDy=0;" edge="1" parent="1" source="5-KOo01hlj58CdEPXeHK-6" target="5-KOo01hlj58CdEPXeHK-9">
          <mxGeometry relative="1" as="geometry">
            <mxPoint x="990" y="160" as="targetPoint" />
          </mxGeometry>
        </mxCell>
        <mxCell id="5-KOo01hlj58CdEPXeHK-56" style="edgeStyle=orthogonalEdgeStyle;rounded=0;orthogonalLoop=1;jettySize=auto;html=1;" edge="1" parent="1" source="5-KOo01hlj58CdEPXeHK-6" target="5-KOo01hlj58CdEPXeHK-10">
          <mxGeometry relative="1" as="geometry">
            <Array as="points">
              <mxPoint x="970" y="330" />
              <mxPoint x="970" y="330" />
            </Array>
          </mxGeometry>
        </mxCell>
        <mxCell id="5-KOo01hlj58CdEPXeHK-6" value="结算方式" style="rounded=1;whiteSpace=wrap;html=1;" vertex="1" parent="1">
          <mxGeometry x="920" y="215" width="100" height="60" as="geometry" />
        </mxCell>
        <mxCell id="5-KOo01hlj58CdEPXeHK-7" value="账户用途" style="rounded=1;whiteSpace=wrap;html=1;" vertex="1" parent="1">
          <mxGeometry x="780" y="340" width="100" height="60" as="geometry" />
        </mxCell>
        <mxCell id="5-KOo01hlj58CdEPXeHK-8" value="币别" style="rounded=1;whiteSpace=wrap;html=1;" vertex="1" parent="1">
          <mxGeometry x="780" y="90" width="100" height="60" as="geometry" />
        </mxCell>
        <mxCell id="5-KOo01hlj58CdEPXeHK-9" value="账户管理策略" style="rounded=1;whiteSpace=wrap;html=1;" vertex="1" parent="1">
          <mxGeometry x="920" y="90" width="100" height="60" as="geometry" />
        </mxCell>
        <mxCell id="5-KOo01hlj58CdEPXeHK-10" value="实体账户" style="rounded=1;whiteSpace=wrap;html=1;" vertex="1" parent="1">
          <mxGeometry x="920" y="340" width="100" height="60" as="geometry" />
        </mxCell>
        <mxCell id="5-KOo01hlj58CdEPXeHK-11" value="开户公司" style="rounded=1;whiteSpace=wrap;html=1;" vertex="1" parent="1">
          <mxGeometry x="630" y="340" width="100" height="60" as="geometry" />
        </mxCell>
        <mxCell id="5-KOo01hlj58CdEPXeHK-13" value="申请公司" style="rounded=1;whiteSpace=wrap;html=1;" vertex="1" parent="1">
          <mxGeometry x="630" y="90" width="100" height="60" as="geometry" />
        </mxCell>
        <mxCell id="5-KOo01hlj58CdEPXeHK-14" value="印鉴授权" style="rounded=1;whiteSpace=wrap;html=1;" vertex="1" parent="1">
          <mxGeometry x="630" y="170" width="100" height="60" as="geometry" />
        </mxCell>
        <mxCell id="5-KOo01hlj58CdEPXeHK-16" value="账户用途" style="rounded=1;whiteSpace=wrap;html=1;" vertex="1" parent="1">
          <mxGeometry x="320" y="340" width="100" height="60" as="geometry" />
        </mxCell>
        <mxCell id="5-KOo01hlj58CdEPXeHK-17" value="银行类别" style="rounded=1;whiteSpace=wrap;html=1;" vertex="1" parent="1">
          <mxGeometry x="160" y="250" width="100" height="60" as="geometry" />
        </mxCell>
        <mxCell id="5-KOo01hlj58CdEPXeHK-89" style="edgeStyle=orthogonalEdgeStyle;rounded=0;orthogonalLoop=1;jettySize=auto;html=1;entryX=0.5;entryY=0;entryDx=0;entryDy=0;" edge="1" parent="1" source="5-KOo01hlj58CdEPXeHK-18" target="5-KOo01hlj58CdEPXeHK-13">
          <mxGeometry relative="1" as="geometry">
            <Array as="points">
              <mxPoint x="210" y="60" />
              <mxPoint x="680" y="60" />
            </Array>
          </mxGeometry>
        </mxCell>
        <mxCell id="5-KOo01hlj58CdEPXeHK-18" value="申请公司" style="rounded=1;whiteSpace=wrap;html=1;" vertex="1" parent="1">
          <mxGeometry x="160" y="90" width="100" height="60" as="geometry" />
        </mxCell>
        <mxCell id="5-KOo01hlj58CdEPXeHK-19" value="银企信息" style="rounded=1;whiteSpace=wrap;html=1;" vertex="1" parent="1">
          <mxGeometry x="160" y="170" width="100" height="60" as="geometry" />
        </mxCell>
        <mxCell id="5-KOo01hlj58CdEPXeHK-20" value="金融机构类别" style="rounded=1;whiteSpace=wrap;html=1;" vertex="1" parent="1">
          <mxGeometry x="320" y="90" width="100" height="60" as="geometry" />
        </mxCell>
        <mxCell id="5-KOo01hlj58CdEPXeHK-21" value="实体账户" style="rounded=1;whiteSpace=wrap;html=1;" vertex="1" parent="1">
          <mxGeometry x="470" y="90" width="100" height="60" as="geometry" />
        </mxCell>
        <mxCell id="5-KOo01hlj58CdEPXeHK-22" value="资金分类" style="rounded=1;whiteSpace=wrap;html=1;" vertex="1" parent="1">
          <mxGeometry x="460" y="340" width="100" height="60" as="geometry" />
        </mxCell>
        <mxCell id="5-KOo01hlj58CdEPXeHK-90" style="edgeStyle=orthogonalEdgeStyle;rounded=0;orthogonalLoop=1;jettySize=auto;html=1;entryX=0.5;entryY=1;entryDx=0;entryDy=0;" edge="1" parent="1" source="5-KOo01hlj58CdEPXeHK-23" target="5-KOo01hlj58CdEPXeHK-11">
          <mxGeometry relative="1" as="geometry">
            <Array as="points">
              <mxPoint x="200" y="430" />
              <mxPoint x="680" y="430" />
            </Array>
          </mxGeometry>
        </mxCell>
        <mxCell id="5-KOo01hlj58CdEPXeHK-23" value="开户公司" style="rounded=1;whiteSpace=wrap;html=1;" vertex="1" parent="1">
          <mxGeometry x="150" y="340" width="100" height="60" as="geometry" />
        </mxCell>
        <mxCell id="5-KOo01hlj58CdEPXeHK-32" value="" style="endArrow=classic;html=1;rounded=0;entryX=1;entryY=0.75;entryDx=0;entryDy=0;" edge="1" parent="1" target="5-KOo01hlj58CdEPXeHK-18">
          <mxGeometry width="50" height="50" relative="1" as="geometry">
            <mxPoint x="340" y="210" as="sourcePoint" />
            <mxPoint x="390" y="160" as="targetPoint" />
          </mxGeometry>
        </mxCell>
        <mxCell id="5-KOo01hlj58CdEPXeHK-33" value="" style="endArrow=classic;html=1;rounded=0;entryX=0.25;entryY=1;entryDx=0;entryDy=0;exitX=0.9;exitY=0;exitDx=0;exitDy=0;exitPerimeter=0;" edge="1" parent="1" source="5-KOo01hlj58CdEPXeHK-1" target="5-KOo01hlj58CdEPXeHK-21">
          <mxGeometry width="50" height="50" relative="1" as="geometry">
            <mxPoint x="410" y="217.5" as="sourcePoint" />
            <mxPoint x="470" y="182.5" as="targetPoint" />
          </mxGeometry>
        </mxCell>
        <mxCell id="5-KOo01hlj58CdEPXeHK-35" value="包含" style="text;html=1;align=center;verticalAlign=middle;resizable=0;points=[];autosize=1;strokeColor=none;fillColor=none;" vertex="1" parent="1">
          <mxGeometry x="440" y="280" width="50" height="30" as="geometry" />
        </mxCell>
        <mxCell id="5-KOo01hlj58CdEPXeHK-36" value="包含" style="text;html=1;align=center;verticalAlign=middle;resizable=0;points=[];autosize=1;strokeColor=none;fillColor=none;" vertex="1" parent="1">
          <mxGeometry x="280" y="150" width="50" height="30" as="geometry" />
        </mxCell>
        <mxCell id="5-KOo01hlj58CdEPXeHK-37" value="包含" style="text;html=1;align=center;verticalAlign=middle;resizable=0;points=[];autosize=1;strokeColor=none;fillColor=none;" vertex="1" parent="1">
          <mxGeometry x="250" y="200" width="50" height="30" as="geometry" />
        </mxCell>
        <mxCell id="5-KOo01hlj58CdEPXeHK-38" value="包含" style="text;html=1;align=center;verticalAlign=middle;resizable=0;points=[];autosize=1;strokeColor=none;fillColor=none;" vertex="1" parent="1">
          <mxGeometry x="250" y="240" width="50" height="30" as="geometry" />
        </mxCell>
        <mxCell id="5-KOo01hlj58CdEPXeHK-39" value="包含" style="text;html=1;align=center;verticalAlign=middle;resizable=0;points=[];autosize=1;strokeColor=none;fillColor=none;" vertex="1" parent="1">
          <mxGeometry x="270" y="300" width="50" height="30" as="geometry" />
        </mxCell>
        <mxCell id="5-KOo01hlj58CdEPXeHK-40" value="包含" style="text;html=1;align=center;verticalAlign=middle;resizable=0;points=[];autosize=1;strokeColor=none;fillColor=none;" vertex="1" parent="1">
          <mxGeometry x="330" y="290" width="50" height="30" as="geometry" />
        </mxCell>
        <mxCell id="5-KOo01hlj58CdEPXeHK-41" value="生成" style="text;html=1;align=center;verticalAlign=middle;resizable=0;points=[];autosize=1;strokeColor=none;fillColor=none;" vertex="1" parent="1">
          <mxGeometry x="560" y="220" width="50" height="30" as="geometry" />
        </mxCell>
        <mxCell id="5-KOo01hlj58CdEPXeHK-50" style="edgeStyle=orthogonalEdgeStyle;rounded=0;orthogonalLoop=1;jettySize=auto;html=1;entryX=0.5;entryY=1;entryDx=0;entryDy=0;" edge="1" parent="1" source="5-KOo01hlj58CdEPXeHK-3" target="5-KOo01hlj58CdEPXeHK-8">
          <mxGeometry relative="1" as="geometry" />
        </mxCell>
        <mxCell id="5-KOo01hlj58CdEPXeHK-51" style="edgeStyle=orthogonalEdgeStyle;rounded=0;orthogonalLoop=1;jettySize=auto;html=1;entryX=0.5;entryY=0;entryDx=0;entryDy=0;" edge="1" parent="1" source="5-KOo01hlj58CdEPXeHK-3" target="5-KOo01hlj58CdEPXeHK-7">
          <mxGeometry relative="1" as="geometry" />
        </mxCell>
        <mxCell id="5-KOo01hlj58CdEPXeHK-52" style="edgeStyle=orthogonalEdgeStyle;rounded=0;orthogonalLoop=1;jettySize=auto;html=1;exitX=1;exitY=0.5;exitDx=0;exitDy=0;entryX=0;entryY=0.5;entryDx=0;entryDy=0;" edge="1" parent="1" source="5-KOo01hlj58CdEPXeHK-3" target="5-KOo01hlj58CdEPXeHK-6">
          <mxGeometry relative="1" as="geometry" />
        </mxCell>
        <mxCell id="5-KOo01hlj58CdEPXeHK-3" value="银行账户" style="rounded=1;whiteSpace=wrap;html=1;" vertex="1" parent="1">
          <mxGeometry x="780" y="215" width="100" height="60" as="geometry" />
        </mxCell>
        <mxCell id="5-KOo01hlj58CdEPXeHK-64" value="对应" style="text;html=1;align=center;verticalAlign=middle;resizable=0;points=[];autosize=1;strokeColor=none;fillColor=none;" vertex="1" parent="1">
          <mxGeometry x="430" y="30" width="50" height="30" as="geometry" />
        </mxCell>
        <mxCell id="5-KOo01hlj58CdEPXeHK-68" value="包含" style="text;html=1;align=center;verticalAlign=middle;resizable=0;points=[];autosize=1;strokeColor=none;fillColor=none;" vertex="1" parent="1">
          <mxGeometry x="920" y="290" width="50" height="30" as="geometry" />
        </mxCell>
        <mxCell id="5-KOo01hlj58CdEPXeHK-69" value="包含" style="text;html=1;align=center;verticalAlign=middle;resizable=0;points=[];autosize=1;strokeColor=none;fillColor=none;" vertex="1" parent="1">
          <mxGeometry x="960" y="170" width="50" height="30" as="geometry" />
        </mxCell>
        <mxCell id="5-KOo01hlj58CdEPXeHK-70" value="包含" style="text;html=1;align=center;verticalAlign=middle;resizable=0;points=[];autosize=1;strokeColor=none;fillColor=none;" vertex="1" parent="1">
          <mxGeometry x="820" y="170" width="50" height="30" as="geometry" />
        </mxCell>
        <mxCell id="5-KOo01hlj58CdEPXeHK-71" value="包含" style="text;html=1;align=center;verticalAlign=middle;resizable=0;points=[];autosize=1;strokeColor=none;fillColor=none;" vertex="1" parent="1">
          <mxGeometry x="850" y="290" width="50" height="30" as="geometry" />
        </mxCell>
        <mxCell id="5-KOo01hlj58CdEPXeHK-76" value="" style="endArrow=classic;html=1;rounded=0;exitX=0.9;exitY=0;exitDx=0;exitDy=0;exitPerimeter=0;" edge="1" parent="1">
          <mxGeometry width="50" height="50" relative="1" as="geometry">
            <mxPoint x="800" y="215" as="sourcePoint" />
            <mxPoint x="730" y="145" as="targetPoint" />
          </mxGeometry>
        </mxCell>
        <mxCell id="5-KOo01hlj58CdEPXeHK-77" value="" style="endArrow=classic;html=1;rounded=0;exitX=0;exitY=0;exitDx=0;exitDy=0;" edge="1" parent="1" source="5-KOo01hlj58CdEPXeHK-3">
          <mxGeometry width="50" height="50" relative="1" as="geometry">
            <mxPoint x="770" y="230" as="sourcePoint" />
            <mxPoint x="730" y="190" as="targetPoint" />
          </mxGeometry>
        </mxCell>
        <mxCell id="5-KOo01hlj58CdEPXeHK-81" value="" style="endArrow=classic;html=1;rounded=0;exitX=0.015;exitY=0.867;exitDx=0;exitDy=0;exitPerimeter=0;entryX=1;entryY=0.5;entryDx=0;entryDy=0;" edge="1" parent="1" source="5-KOo01hlj58CdEPXeHK-3" target="5-KOo01hlj58CdEPXeHK-5">
          <mxGeometry width="50" height="50" relative="1" as="geometry">
            <mxPoint x="760" y="325" as="sourcePoint" />
            <mxPoint x="720" y="285" as="targetPoint" />
          </mxGeometry>
        </mxCell>
        <mxCell id="5-KOo01hlj58CdEPXeHK-82" value="" style="endArrow=classic;html=1;rounded=0;exitX=0.015;exitY=0.867;exitDx=0;exitDy=0;exitPerimeter=0;entryX=1;entryY=0.5;entryDx=0;entryDy=0;" edge="1" parent="1" target="5-KOo01hlj58CdEPXeHK-11">
          <mxGeometry width="50" height="50" relative="1" as="geometry">
            <mxPoint x="782" y="277" as="sourcePoint" />
            <mxPoint x="740" y="300" as="targetPoint" />
          </mxGeometry>
        </mxCell>
        <mxCell id="5-KOo01hlj58CdEPXeHK-83" value="包含" style="text;html=1;align=center;verticalAlign=middle;resizable=0;points=[];autosize=1;strokeColor=none;fillColor=none;" vertex="1" parent="1">
          <mxGeometry x="750" y="160" width="50" height="30" as="geometry" />
        </mxCell>
        <mxCell id="5-KOo01hlj58CdEPXeHK-84" value="包含" style="text;html=1;align=center;verticalAlign=middle;resizable=0;points=[];autosize=1;strokeColor=none;fillColor=none;" vertex="1" parent="1">
          <mxGeometry x="730" y="200" width="50" height="30" as="geometry" />
        </mxCell>
        <mxCell id="5-KOo01hlj58CdEPXeHK-85" value="包含" style="text;html=1;align=center;verticalAlign=middle;resizable=0;points=[];autosize=1;strokeColor=none;fillColor=none;" vertex="1" parent="1">
          <mxGeometry x="730" y="250" width="50" height="30" as="geometry" />
        </mxCell>
        <mxCell id="5-KOo01hlj58CdEPXeHK-86" value="包含" style="text;html=1;align=center;verticalAlign=middle;resizable=0;points=[];autosize=1;strokeColor=none;fillColor=none;" vertex="1" parent="1">
          <mxGeometry x="740" y="320" width="50" height="30" as="geometry" />
        </mxCell>
        <mxCell id="5-KOo01hlj58CdEPXeHK-91" value="对应" style="text;html=1;align=center;verticalAlign=middle;resizable=0;points=[];autosize=1;strokeColor=none;fillColor=none;" vertex="1" parent="1">
          <mxGeometry x="420" y="430" width="50" height="30" as="geometry" />
        </mxCell>
      </root>
    </mxGraphModel>
  </diagram>
</mxfile>
